<svg xmlns="http://www.w3.org/2000/svg" version="1.1" xmlns:xlink="http://www.w3.org/1999/xlink" xmlns:svgjs="http://svgjs.dev/svgjs"
width="2000" height="1247" viewBox="0 0 2000 1247">
<g transform="matrix(1,0,0,1,-1.2121212121212466,0.504858299595071)">
<svg viewBox="0 0 396 247" data-background-color="#ffffff" preserveAspectRatio="xMidYMid meet" height="1247" width="2000" xmlns="http://www.w3.org/2000/svg"
 xmlns:xlink="http://www.w3.org/1999/xlink"><g id="tight-bounds" transform="matrix(1,0,0,1,0.2400000000000091,-0.09999999999999432)"><svg viewBox="0 0 395.52 247.2" 
 height="247.2" width="395.52"><rect width="395.52" height="247.2" fill="url(#561e2fb1-665a-43cd-87c9-43bef77d525b)" mask="url(#687682a6-19b6-4753-8402-4a87b3b509f2)" 
 data-fill-palette-color="tertiary"></rect><g><svg></svg></g><g><svg viewBox="0 0 395.52 247.2" height="247.2" width="395.52">
 <g transform="matrix(1,0,0,1,75.54432,49.715966547812016)"><svg viewBox="0 0 244.43135999999998 147.76806690437596" height="147.76806690437596"
  width="244.43135999999998"><g><svg viewBox="0 0 244.43135999999998 147.76806690437596" height="147.76806690437596" width="244.43135999999998"><g>
  <svg viewBox="0 0 244.43135999999998 147.76806690437596" height="147.76806690437596" width="244.43135999999998"><g><svg viewBox="0 0 244.43135999999998 147.76806690437596" 
  height="147.76806690437596" width="244.43135999999998"><g id="textblocktransform"><svg viewBox="0 0 244.43135999999998 147.76806690437596" height="147.76806690437596" 
  width="244.43135999999998" id="textblock"><g><svg viewBox="0 0 244.43135999999998 147.76806690437596" height="147.76806690437596" width="244.43135999999998">
  <g transform="matrix(1,0,0,1,0,0)"><svg width="244.43135999999998" viewBox="5.95 -37 61.7 37.3" height="147.76806690437596"
   data-palette-color="url(#951d5490-90f2-474b-b7c3-3d0a2cabe606)"></svg></g></svg></g></svg></g></svg></g></svg></g></svg></g></svg></g><g>
   <path d="M0 123.6c0-68.262 55.338-123.6 123.6-123.6 32.086 0 61.316 12.226 83.287 32.274h-10.247c-20.013-16.026-45.407-25.611-73.04-25.611-64.583 0-116.937 52.355-116.937 116.937 0 64.583 52.355 116.937 116.937 116.937 27.633 0 53.027-9.585 73.04-25.611h10.247c-21.97 20.048-51.201 32.274-83.287 32.274-68.262 0-123.6-55.338-123.6-123.6z" fill="url(#561e2fb1-665a-43cd-87c9-43bef77d525b)" stroke="transparent" data-fill-palette-color="tertiary"></path></g></svg></g><defs></defs><mask id="96f61e72-3a70-4ab7-ae7b-808e560e8e29"><g id="SvgjsG2188"><svg viewBox="0 0 395.52 247.2" height="247.2" width="395.52">
   <g><svg></svg></g><g><svg viewBox="0 0 395.52 247.2" height="247.2" width="395.52">
   <g transform="matrix(1,0,0,1,75.54432,49.715966547812016)"><svg viewBox="0 0 244.43135999999998 147.76806690437596" height="147.76806690437596" 
   width="244.43135999999998"><g><svg viewBox="0 0 244.43135999999998 147.76806690437596" height="147.76806690437596" width="244.43135999999998"><g><svg viewBox="0 0 244.43135999999998 147.76806690437596" height="147.76806690437596" width="244.43135999999998"><g><svg viewBox="0 0 244.43135999999998 147.76806690437596" height="147.76806690437596" width="244.43135999999998"><g id="SvgjsG2187"><svg viewBox="0 0 244.43135999999998 147.76806690437596" height="147.76806690437596" width="244.43135999999998" id="SvgjsSvg2186"><g><svg viewBox="0 0 244.43135999999998 147.76806690437596" height="147.76806690437596" width="244.43135999999998"><g transform="matrix(1,0,0,1,0,0)"><svg width="244.43135999999998" viewBox="5.95 -37 61.7 37.3" height="147.76806690437596" data-palette-color="url(#951d5490-90f2-474b-b7c3-3d0a2cabe606)"><path d="M18.7 0L11.25 0 16.05-30.35 5.95-30.35 7-37 34.7-37 33.65-30.35 23.5-30.35 18.7 0ZM47.7 0.3L47.7 0.3Q41.75 0.3 38.67-2.3 35.6-4.9 35.6-10.85L35.6-10.85Q35.6-12.15 35.77-13.78 35.95-15.4 36.25-17.1L36.25-17.1 39.4-37 46.8-37 43.5-16Q43.3-14.75 43.15-13.58 43-12.4 43-11.45L43-11.45Q43-8.8 44.35-7.58 45.7-6.35 48.7-6.35L48.7-6.35Q50.4-6.35 51.72-6.75 53.05-7.15 54.02-8.18 55-9.2 55.72-11.1 56.45-13 56.9-16L56.9-16 60.25-37 67.65-37 64.15-14.9Q63.35-10.05 61.95-7.03 60.55-4 58.52-2.43 56.5-0.85 53.8-0.28 51.1 0.3 47.7 0.3Z" opacity="1" transform="matrix(1,0,0,1,0,0)" fill="white" class="wordmark-text-0" id="SvgjsPath2185"></path></svg></g></svg></g></svg></g></svg></g></svg></g></svg></g></svg></g><g><path d="M0 123.6c0-68.262 55.338-123.6 123.6-123.6 32.086 0 61.316 12.226 83.287 32.274h-10.247c-20.013-16.026-45.407-25.611-73.04-25.611-64.583 0-116.937 52.355-116.937 116.937 0 64.583 52.355 116.937 116.937 116.937 27.633 0 53.027-9.585 73.04-25.611h10.247c-21.97 20.048-51.201 32.274-83.287 32.274-68.262 0-123.6-55.338-123.6-123.6z" fill="black" stroke="transparent"></path></g></svg></g><defs><mask></mask></defs></svg><rect width="395.52" height="247.2" fill="black" stroke="none" visibility="hidden"></rect></g></mask><linearGradient x1="0" x2="1" y1="0.5" y2="0.5" id="951d5490-90f2-474b-b7c3-3d0a2cabe606"><stop stop-color="#f00b51" offset="0"></stop><stop stop-color="#730062" offset="1"></stop></linearGradient><rect width="395.52" height="247.2" fill="url(#951d5490-90f2-474b-b7c3-3d0a2cabe606)" mask="url(#96f61e72-3a70-4ab7-ae7b-808e560e8e29)" data-fill-palette-color="primary"></rect><mask id="687682a6-19b6-4753-8402-4a87b3b509f2"><g id="SvgjsG2195"><svg viewBox="0 0 395.52 247.2" height="247.2" width="395.52"><g><svg></svg></g><g><svg viewBox="0 0 395.52 247.2" height="247.2" width="395.52"><g transform="matrix(1,0,0,1,75.54432,49.715966547812016)"><svg viewBox="0 0 244.43135999999998 147.76806690437596" height="147.76806690437596" width="244.43135999999998"><g><svg viewBox="0 0 244.43135999999998 147.76806690437596" height="147.76806690437596" width="244.43135999999998"><g><svg viewBox="0 0 244.43135999999998 147.76806690437596" height="147.76806690437596" width="244.43135999999998"><g><svg viewBox="0 0 244.43135999999998 147.76806690437596" height="147.76806690437596" width="244.43135999999998"><g id="SvgjsG2194"><svg viewBox="0 0 244.43135999999998 147.76806690437596" height="147.76806690437596" width="244.43135999999998" id="SvgjsSvg2193"><g><svg viewBox="0 0 244.43135999999998 147.76806690437596" height="147.76806690437596" width="244.43135999999998"><g transform="matrix(1,0,0,1,0,0)"><svg width="244.43135999999998" viewBox="5.95 -37 61.7 37.3" height="147.76806690437596" data-palette-color="url(#951d5490-90f2-474b-b7c3-3d0a2cabe606)"></svg></g></svg></g></svg></g></svg></g></svg></g></svg></g></svg></g><g><path d="M0 123.6c0-68.262 55.338-123.6 123.6-123.6 32.086 0 61.316 12.226 83.287 32.274h-10.247c-20.013-16.026-45.407-25.611-73.04-25.611-64.583 0-116.937 52.355-116.937 116.937 0 64.583 52.355 116.937 116.937 116.937 27.633 0 53.027-9.585 73.04-25.611h10.247c-21.97 20.048-51.201 32.274-83.287 32.274-68.262 0-123.6-55.338-123.6-123.6z" fill="white" stroke="transparent"></path></g></svg></g><defs><mask></mask></defs><mask><g id="SvgjsG2192"><svg viewBox="0 0 395.52 247.2" height="247.2" width="395.52"><g><svg></svg></g><g><svg viewBox="0 0 395.52 247.2" height="247.2" width="395.52"><g transform="matrix(1,0,0,1,75.54432,49.715966547812016)"><svg viewBox="0 0 244.43135999999998 147.76806690437596" height="147.76806690437596" width="244.43135999999998"><g><svg viewBox="0 0 244.43135999999998 147.76806690437596" height="147.76806690437596" width="244.43135999999998"><g><svg viewBox="0 0 244.43135999999998 147.76806690437596" height="147.76806690437596" width="244.43135999999998"><g><svg viewBox="0 0 244.43135999999998 147.76806690437596" height="147.76806690437596" width="244.43135999999998"><g id="SvgjsG2191"><svg viewBox="0 0 244.43135999999998 147.76806690437596" height="147.76806690437596" width="244.43135999999998" id="SvgjsSvg2190"><g><svg viewBox="0 0 244.43135999999998 147.76806690437596" height="147.76806690437596" width="244.43135999999998"><g transform="matrix(1,0,0,1,0,0)"><svg width="244.43135999999998" viewBox="5.95 -37 61.7 37.3" height="147.76806690437596" data-palette-color="url(#951d5490-90f2-474b-b7c3-3d0a2cabe606)"><path d="M18.7 0L11.25 0 16.05-30.35 5.95-30.35 7-37 34.7-37 33.65-30.35 23.5-30.35 18.7 0ZM47.7 0.3L47.7 0.3Q41.75 0.3 38.67-2.3 35.6-4.9 35.6-10.85L35.6-10.85Q35.6-12.15 35.77-13.78 35.95-15.4 36.25-17.1L36.25-17.1 39.4-37 46.8-37 43.5-16Q43.3-14.75 43.15-13.58 43-12.4 43-11.45L43-11.45Q43-8.8 44.35-7.58 45.7-6.35 48.7-6.35L48.7-6.35Q50.4-6.35 51.72-6.75 53.05-7.15 54.02-8.18 55-9.2 55.72-11.1 56.45-13 56.9-16L56.9-16 60.25-37 67.65-37 64.15-14.9Q63.35-10.05 61.95-7.03 60.55-4 58.52-2.43 56.5-0.85 53.8-0.28 51.1 0.3 47.7 0.3Z" opacity="1" transform="matrix(1,0,0,1,0,0)" fill="black" class="wordmark-text-0" id="SvgjsPath2189"></path></svg></g></svg></g></svg></g></svg></g></svg></g></svg></g></svg></g><g><path d="M0 123.6c0-68.262 55.338-123.6 123.6-123.6 32.086 0 61.316 12.226 83.287 32.274h-10.247c-20.013-16.026-45.407-25.611-73.04-25.611-64.583 0-116.937 52.355-116.937 116.937 0 64.583 52.355 116.937 116.937 116.937 27.633 0 53.027-9.585 73.04-25.611h10.247c-21.97 20.048-51.201 32.274-83.287 32.274-68.262 0-123.6-55.338-123.6-123.6z" fill="black" stroke="transparent"></path></g></svg></g><defs><mask></mask></defs></svg><rect width="395.52" height="247.2" fill="black" stroke="none" visibility="hidden"></rect></g></mask></svg><rect width="395.52" height="247.2" fill="black" stroke="none" visibility="hidden"></rect></g></mask><linearGradient x1="0" x2="1" y1="0.548" y2="0.55" id="561e2fb1-665a-43cd-87c9-43bef77d525b"><stop stop-color="#ff6cab" offset="0"></stop><stop stop-color="#7366ff" offset="1"></stop></linearGradient></svg><rect width="395.52" height="247.2" fill="none" stroke="none" visibility="hidden"></rect></g></svg></g></svg>